<?xml version="1.0" encoding="utf-8"?>
<!-- Generator: Adobe Illustrator 27.5.0, SVG Export Plug-In . SVG Version: 6.00 Build 0)  -->
<svg version="1.1" id="Layer_1" xmlns="http://www.w3.org/2000/svg" xmlns:xlink="http://www.w3.org/1999/xlink" x="0px" y="0px"
	 viewBox="0 0 4000 4000" style="enable-background:new 0 0 4000 4000;" xml:space="preserve">
<g>
	<rect x="0" style="fill-rule:evenodd;clip-rule:evenodd;fill:#FFFFFF;" width="4000" height="4000"/>
	<path style="fill-rule:evenodd;clip-rule:evenodd;" d="M1999.997,3632.96c218.449-262.568,511.584-302.971,696.215-659.696
		c33.801,81.368,51.323,182.768,51.323,182.768c247.851-393.066,155.208-816.165,155.208-816.165l241.589-260.372l-122.673-381.798
		l-121.427,58.837c20.028-103.903,33.406-230.753,33.406-230.753l-0.004-0.02c16.431-30.052,31.498-61.355,44.181-93.443
		c85.128-215.305,0-508.223,0-508.223c-23.69,38.253-48.897,72.835-74.939,104.14c41.349-237.548-3.845-457.158-3.845-457.158
		c-95.134,92.632-223.307,260.727-223.307,260.727l-0.021,0.033c-8.423-192.411-53.312-345.878-53.312-345.878
		c-122.681,70.095-331.734,289.162-331.734,289.162c-60.087-195.278-290.661-408.08-290.661-408.08s-230.574,212.802-290.657,408.08
		c0,0-209.057-219.066-331.734-289.162c0,0-44.893,153.467-53.316,345.878l-0.02-0.033c0,0-128.17-168.095-223.307-260.727
		c0,0-45.194,219.61-3.845,457.158c-26.042-31.305-51.245-65.887-74.939-104.14c0,0-85.124,292.918,0,508.223
		c12.687,32.089,27.751,63.392,44.181,93.443l-0.004,0.02c0,0,13.379,126.85,33.406,230.753l-121.427-58.837l-122.672,381.798
		l241.593,260.372c0,0-92.647,423.098,155.204,816.165c0,0,17.525-101.4,51.322-182.768
		C1488.417,3329.989,1781.552,3370.392,1999.997,3632.96"/>
	<path style="fill-rule:evenodd;clip-rule:evenodd;fill:#FFFFFF;" d="M1175.644,2015.873
		c-0.122-0.143-84.705-102.893-112.223-129.162l-20.028,199.04l36.304-115.171l95.178,113.923
		c-13.757,68.835-52.616,187.758-52.616,187.758c-72.603-102.646-195.284-222.822-195.284-222.822l87.63-276.643l107.654,51.326
		C1138.812,1873.874,1166.937,1951.436,1175.644,2015.873"/>
	<path style="fill-rule:evenodd;clip-rule:evenodd;fill:#FFFFFF;" d="M1315.305,1772.636c0,0-185.478-113.74-245.561-404.155
		c0,0,48.193,86.477,196.529,126.425c0,0-184.017-68.843-214.058-416.838c0,0,154.696,183.307,415.816,266.045
		c-28.849,18.827-54.26,46.252-72.811,80.703c-52.572,97.633-35.042,200.281-58.826,277.893
		C1329.164,1726.289,1321.909,1750.441,1315.305,1772.636"/>
	<path style="fill-rule:evenodd;clip-rule:evenodd;fill:#FFFFFF;" d="M1157.061,1093.46c-16.064-89.333-41.37-263.547-23.552-397.2
		c0,0,113.749,94.115,189.693,223.612c2.364,112.407,26.225,216.533,66.589,337.828
		C1320.407,1224.123,1237.156,1172.296,1157.061,1093.46"/>
	<path style="fill-rule:evenodd;clip-rule:evenodd;fill:#FFFFFF;" d="M2824.35,2015.873c0.122-0.143,84.705-102.893,112.223-129.162
		l20.028,199.04l-36.3-115.171l-95.178,113.923c13.753,68.835,52.612,187.758,52.612,187.758
		c72.607-102.646,195.284-222.822,195.284-222.822l-87.626-276.643l-107.658,51.326
		C2861.182,1873.874,2833.057,1951.436,2824.35,2015.873"/>
	<path style="fill-rule:evenodd;clip-rule:evenodd;fill:#FFFFFF;" d="M2684.693,1772.636c0,0,185.473-113.74,245.561-404.155
		c0,0-48.193,86.477-196.533,126.425c0,0,184.017-68.843,214.058-416.838c0,0-154.696,183.307-415.812,266.045
		c28.845,18.827,54.26,46.252,72.807,80.703c52.576,97.633,35.046,200.281,58.83,277.893
		C2670.83,1726.289,2678.089,1750.441,2684.693,1772.636"/>
	<path style="fill-rule:evenodd;clip-rule:evenodd;fill:#FFFFFF;" d="M2842.937,1093.46c16.061-89.333,41.366-263.547,23.552-397.2
		c0,0-113.749,94.115-189.697,223.612c-2.36,112.407-26.225,216.533-66.589,337.828
		C2679.591,1224.123,2762.838,1172.296,2842.937,1093.46"/>
	<path style="fill-rule:evenodd;clip-rule:evenodd;fill:#FFFFFF;" d="M1999.997,3039.642c274.56-86.343,403.8-315.37,403.89-315.535
		c12.097-20.168,20.357-29.835,22.526-36.708c82.617,62.588,105.688,104.395,105.688,104.395
		c35.221-107.405,19.552-181.762-14.042-235.767l0.037,0.018c0,0,65.971-124.775,84.749-196.128
		c18.774-71.354,36.304-140.197,118.925-190.271l-36.373-236.573c0,0,34.619-36.795,26.119-68.982l0.012,0.005l-0.159-0.548
		l-0.118-0.417l-0.175-0.6c-1.217-4.223-4.871-16.847-10.067-34.597c0,0,78.605-73.936,157.491-183.662
		c-33.289,138.033-105.664,287.008-95.353,426.828c9.896,134.277,75.106,246.755,95.809,395.192
		c-41.313-75.1-128.939-145.21-128.939-145.21c147.713,307.946,41.309,612.128,41.309,612.128
		c-36.092-114.36-75.102-191.523-75.102-191.523c-70.101,365.523-254.122,445.64-254.122,445.64
		c46.318-102.648,60.083-255.37,60.083-255.37c-100.879,311.292-276.054,407.732-502.189,608.372
		c-226.131-200.64-401.31-297.08-502.189-608.372c0,0,13.766,152.722,60.087,255.37c0,0-184.025-80.116-254.122-445.64
		c0,0-39.014,77.163-75.106,191.523c0,0-106.405-304.182,41.313-612.128c0,0-87.63,70.11-128.939,145.21
		c20.699-148.437,85.913-260.915,95.809-395.192c10.307-139.82-62.069-288.795-95.357-426.828
		c78.89,109.725,157.491,183.662,157.491,183.662c-5.196,17.75-8.846,30.373-10.067,34.597l-0.175,0.6l-0.118,0.417l-0.155,0.548
		l0.008-0.005c-8.496,32.187,26.123,68.982,26.123,68.982l-36.373,236.573c82.617,50.075,100.146,118.918,118.921,190.271
		c18.778,71.353,84.749,196.128,84.749,196.128l0.041-0.018c-33.594,54.005-49.267,128.362-14.042,235.767
		c0,0,23.071-41.807,105.684-104.395c2.169,6.873,10.433,16.54,22.526,36.708
		C1596.197,2724.272,1725.441,2953.299,1999.997,3039.642"/>
	<path style="fill-rule:evenodd;clip-rule:evenodd;fill:#FFFFFF;" d="M1999.997,2572.101
		c151.286,63.75,249.109,21.783,368.241,119.2c-61.849,103.537-208.537,207.52-208.537,207.52
		c-12.52-55.087-95.129-127.687-95.129-127.687c53.825-11.267,127.677-5.007,127.677-5.007
		c-56.091-37.867-124.174-56.798-192.253-56.798s-136.157,18.932-192.248,56.798c0,0,73.852-6.26,127.677,5.007
		c0,0-82.613,72.6-95.129,127.687c0,0-146.692-103.983-208.537-207.52C1750.888,2593.884,1848.711,2635.851,1999.997,2572.101"/>
	<path style="fill-rule:evenodd;clip-rule:evenodd;fill:#FFFFFF;" d="M1999.997,2093.304
		c44.377-101.395,75.793-35.045,77.047,11.263c1.257,46.318,0,138.955,0,138.955c58.838-185.263,130.184-123.937,157.723-115.172
		c27.539,8.768,123.934,60.09,214.058,31.298c90.128-28.79,117.029-113.287,117.029-113.287
		c-39.429,38.178-80.111,73.233-190.893,64.465c-110.787-8.763-178.385-57.585-178.385-57.585
		c111.41,51.325,217.188,30.675,276.025-18.147c58.834-48.818,53.194-125.807,53.194-125.807s5.009,39.435-4.378,95.763
		c-9.387,56.333-43.815,75.733-43.815,75.733c68.852-31.295,56.335-80.113,98.893-131.438c19.783-23.858,44.71-29.047,65.719-27.77
		l12.59,216.146c0,0-106.405,90.122-170.248,122.663c0,0-60.083-45.065-138.948-56.328c0,0,73.853,40.682,113.912,113.292
		l-56.335,129.925c-8.74-6.137-16.813-11.843-23.8-17.253c-66.345-51.325-113.916-75.108-127.686-110.158
		c-13.774-35.05-40.06-110.16-40.06-110.16c-137.695,26.292-152.099,142.707-152.099,142.707
		c41.313-75.733,127.681-77.608,127.681-77.608c14.4,33.17,27.539,76.355,13.774,108.902c-13.774,32.547-41.313,23.16-41.313,23.16
		c-71.977-85.12-159.684,98.267-159.684,98.267s-87.707-183.386-159.684-98.267c0,0-27.539,9.387-41.309-23.16
		c-13.769-32.547-0.631-75.732,13.77-108.902c0,0,86.373,1.875,127.681,77.608c0,0-14.404-116.415-152.095-142.707
		c0,0-26.29,75.11-40.059,110.16c-13.774,35.05-61.34,58.833-127.686,110.158c-6.986,5.41-15.063,11.116-23.804,17.253
		l-56.331-129.925c40.055-72.61,113.908-113.292,113.908-113.292c-78.861,11.263-138.948,56.328-138.948,56.328
		c-63.843-32.542-170.243-122.663-170.243-122.663l12.585-216.146c21.008-1.277,45.935,3.912,65.719,27.77
		c42.562,51.325,30.046,100.143,98.893,131.438c0,0-34.428-19.4-43.815-75.733c-9.387-56.328-4.378-95.763-4.378-95.763
		s-5.636,76.988,53.198,125.807c58.838,48.822,164.612,69.472,276.021,18.147c0,0-67.594,48.822-178.381,57.585
		c-110.783,8.768-151.465-26.286-190.898-64.465c0,0,26.9,84.497,117.029,113.287c90.129,28.792,186.519-22.53,214.058-31.298
		c27.539-8.765,98.889-70.092,157.727,115.172c0,0-1.257-92.637,0-138.955C1924.203,2058.259,1955.62,1991.909,1999.997,2093.304"/>
	<path style="fill-rule:evenodd;clip-rule:evenodd;fill:#CCCCCC;" d="M1999.997,1861.719c36.861,12.52,38.249,43.813,30.737,82.615
		c-7.507,38.807-30.737,71.358-30.737,71.358s-23.23-32.552-30.737-71.358C1961.748,1905.533,1963.14,1874.239,1999.997,1861.719"/>
	<path style="fill-rule:evenodd;clip-rule:evenodd;fill:#FFFFFF;" d="M1999.997,1578.785c0,0,135.351-55.087,245.508-120.175
		c110.156-65.098,195.28-108.903,260.372-56.33c65.096,52.578,81.368,108.907,83.875,179.003
		c1.835,51.505,38.814,166.531,58.305,223.933c-57.32-39.767-135.408-87.45-135.408-87.45l138.948,163.356
		c-85.124-65.711-133.317-83.245-187.142-51.95c-53.825,31.3-329.219,186.52-329.219,186.52s158.349-107.65,237.211-179.008
		c78.861-71.348,111.405-120.799,111.405-120.799s-63.208,40.687-126.428,84.497c-63.212,43.813-249.735,179.006-249.735,179.006
		s-35.05-11.272-36.93-76.36c-1.876-65.094,39.433-80.117,105.778-120.175c66.341-40.053,101.392-93.255,101.392-93.255
		c-162.732,106.403-277.93,112.663-277.93,112.663s-115.194-6.26-277.925-112.663c0,0,35.05,53.202,101.391,93.255
		c66.345,40.058,107.654,55.081,105.778,120.175c-1.88,65.088-36.93,76.36-36.93,76.36s-186.527-135.193-249.739-179.006
		c-63.216-43.81-126.428-84.497-126.428-84.497s32.548,49.45,111.405,120.799c78.866,71.358,237.211,179.008,237.211,179.008
		s-275.395-155.22-329.219-186.52c-53.825-31.295-102.018-13.762-187.142,51.95l138.948-163.356c0,0-78.088,47.683-135.404,87.45
		c19.486-57.401,56.466-172.428,58.301-223.933c2.506-70.097,18.782-126.425,83.875-179.003
		c65.096-52.573,150.215-8.768,260.372,56.33C1864.65,1523.698,1999.997,1578.785,1999.997,1578.785"/>
	<path style="fill-rule:evenodd;clip-rule:evenodd;fill:#FFFFFF;" d="M1999.997,969.146l74.101-398.07
		c74.105,72.61,192.777,252.86,202.795,428.112c10.014,175.253-141.455,391.815-141.455,391.815
		c191.288-182.286,212.634-376.715,171.358-556.001c101.705-130.507,265.523-225.113,265.523-225.113
		c108.386,233.13-4.541,568.942-49.557,684.156c-52.095,18.122-122.583,18.572-163.338,43.142
		c-85.124,51.327-359.428,179.008-359.428,179.008s-274.304-127.682-359.428-179.008c-40.751-24.57-111.243-25.02-163.334-43.142
		c-45.015-115.215-157.943-451.026-49.556-684.156c0,0,163.814,94.607,265.519,225.113
		c-41.276,179.286-19.93,373.715,171.362,556.001c0,0-151.469-216.562-141.455-391.815
		c10.018-175.252,128.686-355.502,202.791-428.112L1999.997,969.146z"/>
	<path style="fill-rule:evenodd;clip-rule:evenodd;fill:#FFFFFF;" d="M2027.674,2536.274
		c115.604,37.913,209.021,19.967,329.171,94.035l-16.268-56.328c0,0,107.65,66.345,166.484,138.945
		c0,0,27.543-148.961-102.645-226.573c-130.184-77.608-150.216-102.648-150.216-102.648s-38.269,92.055-117.668,63.846
		C2136.532,2447.551,2079.676,2440.364,2027.674,2536.274"/>
	<path style="fill-rule:evenodd;clip-rule:evenodd;fill:#FFFFFF;" d="M1972.324,2536.274
		c-115.609,37.913-209.025,19.967-329.175,94.035l16.272-56.328c0,0-107.65,66.345-166.484,138.945
		c0,0-27.543-148.961,102.641-226.573c130.188-77.608,150.22-102.648,150.22-102.648s38.265,92.055,117.664,63.846
		C1863.461,2447.551,1920.322,2440.364,1972.324,2536.274"/>
	<path style="fill-rule:evenodd;clip-rule:evenodd;fill:#CCCCCC;" d="M1178.509,1090.54c0,0-48.824-200.292-35.051-356.763
		c0,0,122.904,108.057,179.744,186.095C1247.259,790.375,1133.51,696.26,1133.51,696.26c-17.818,133.653,7.487,307.866,23.552,397.2
		c55.347,54.472,112.195,96.052,164.937,127.62C1321.998,1221.079,1223.573,1139.361,1178.509,1090.54"/>
	<path style="fill-rule:evenodd;clip-rule:evenodd;fill:#CCCCCC;" d="M1427.679,609.888
		c-108.386,233.13,4.541,568.942,49.556,684.156c0,0-152.275-438.841-40.865-651.648c0,0,150.216,88.877,236.588,194.027
		c0,0-34.346,162.25,22.823,290.5c-28.695-98.85-24.324-197.485-2.584-291.921C1591.493,704.495,1427.679,609.888,1427.679,609.888"
		/>
	<path style="fill-rule:evenodd;clip-rule:evenodd;fill:#CCCCCC;" d="M1925.896,571.076
		c-74.105,72.61-192.773,252.86-202.791,428.112c-1.904,33.322,2.03,68.142,9.652,102.677c0,0-13.485-290.477,170.532-456.963
		l82.841,249.765L1925.896,571.076z"/>
	<path style="fill-rule:evenodd;clip-rule:evenodd;fill:#CCCCCC;" d="M2821.489,1090.54c0,0,48.82-200.292,35.051-356.763
		c0,0-122.908,108.057-179.749,186.095c75.948-129.497,189.697-223.612,189.697-223.612c17.814,133.653-7.491,307.866-23.552,397.2
		c-55.347,54.472-112.195,96.052-164.937,127.62C2678,1221.079,2776.421,1139.361,2821.489,1090.54"/>
	<path style="fill-rule:evenodd;clip-rule:evenodd;fill:#CCCCCC;" d="M2572.319,609.888
		c108.386,233.13-4.541,568.942-49.557,684.156c0,0,152.275-438.841,40.861-651.648c0,0-150.211,88.877-236.588,194.027
		c0,0,34.346,162.25-22.819,290.5c28.691-98.85,24.321-197.485,2.58-291.921C2408.501,704.495,2572.319,609.888,2572.319,609.888"/>
	<path style="fill-rule:evenodd;clip-rule:evenodd;fill:#CCCCCC;" d="M2074.098,571.076
		c74.105,72.61,192.777,252.86,202.795,428.112c1.9,33.322-2.035,68.142-9.652,102.677c0,0,13.481-290.477-170.536-456.963
		l-82.841,249.765L2074.098,571.076z"/>
	<path style="fill-rule:evenodd;clip-rule:evenodd;fill:#CCCCCC;" d="M1253.928,2202.996c0,0,77.551,16.068,132.658,118.19
		c-16.781-57.132-40.824-110.612-108.358-151.54l36.373-236.573c0,0-34.619-36.795-26.131-68.977l0.155-0.548l0.118-0.417l0.175-0.6
		c1.221-4.223,4.871-16.847,10.067-34.597c0,0-78.601-73.936-157.491-183.662c33.289,138.033,105.664,287.008,95.357,426.828
		c-5.33,72.263-26.672,138.212-48.482,206.853c0,0,51.794-98.745,71.822-183.865L1253.928,2202.996z"/>
	<path style="fill-rule:evenodd;clip-rule:evenodd;fill:#CCCCCC;" d="M1266.273,1494.906
		c-159.981-106.95-180.505-351.203-180.505-351.203c95.133,112.663,331.73,209.055,331.73,209.055
		c-85.506,88.65-63.989,233.183-63.989,233.183c5.042-51.868,12.708-107.263,41.711-161.125
		c18.551-34.452,43.962-61.877,72.811-80.703c-261.12-82.738-415.816-266.045-415.816-266.045
		C1082.256,1426.063,1266.273,1494.906,1266.273,1494.906"/>
	<path style="fill-rule:evenodd;clip-rule:evenodd;fill:#CCCCCC;" d="M1272.906,1585.586
		c-101.396,15.025-153.967-132.06-153.967-132.06c53.202,34.422,147.335,41.38,147.335,41.38
		c-148.336-39.949-196.529-126.425-196.529-126.425c60.083,290.415,245.561,404.155,245.561,404.155
		c6.604-22.195,13.859-46.346,21.09-69.926c6.612-21.585,10.034-45.109,12.651-69.922c-4.688,40.715-49.007,88.72-87.406,39.175
		C1222.833,1621.889,1272.906,1585.586,1272.906,1585.586"/>
	<path style="fill-rule:evenodd;clip-rule:evenodd;fill:#CCCCCC;" d="M1471.925,1622.513c0,0-23.792-28.166-18.783-108.278
		c5.009-80.112,72.607-98.892,73.857-55.705c1.253,43.185,30.668,57.585,30.668,57.585c-35.05-43.813-1.253-92.631,72.603-83.872
		c73.856,8.763,161.483,80.115,161.483,80.115l-32.548,13.769c95.133-1.254,240.792,52.658,240.792,52.658
		s-135.347-55.087-245.508-120.175c-110.156-65.098-195.276-108.903-260.372-56.33c-65.092,52.578-81.368,108.907-83.875,179.003
		c-1.835,51.505-38.814,166.531-58.301,223.933c57.316-39.767,135.404-87.45,135.404-87.45
		c-77.824,39.543-104.927,5.518-86.153-36.415C1419.972,1639.413,1471.925,1622.513,1471.925,1622.513"/>
	<path style="fill-rule:evenodd;clip-rule:evenodd;fill:#CCCCCC;" d="M1516.143,1715.886c30.497,68.972-37.386,89.382-41.764,60.59
		c-4.382-28.785,12.968-58.71,12.968-58.71l-138.948,163.356c85.124-65.711,133.317-83.245,187.142-51.95
		c53.825,31.3,329.219,186.52,329.219,186.52s-158.345-107.65-237.211-179.008
		C1548.691,1765.336,1516.143,1715.886,1516.143,1715.886"/>
	<path style="fill-rule:evenodd;clip-rule:evenodd;fill:#CCCCCC;" d="M1894.353,1902.283
		c-21.281,28.795-98.889-8.763-149.585-44.438c-50.7-35.673-228.625-141.958-228.625-141.958s63.212,40.687,126.428,84.497
		c63.212,43.813,249.739,179.006,249.739,179.006s35.051-11.272,36.93-76.36c1.876-65.094-39.433-80.117-105.778-120.175
		c-35.449-21.402-61.967-46.558-78.975-65.349c22.42,27.908,60.364,63.979,80.391,85.257c20.024,21.283-2.502,49.452-2.502,49.452
		C1873.268,1812.259,1915.634,1873.493,1894.353,1902.283"/>
	<path style="fill-rule:evenodd;clip-rule:evenodd;fill:#CCCCCC;" d="M1754.937,1710.156
		c145.162,86.678,245.06,92.107,245.06,92.107s99.898-5.428,245.06-92.107C2084.339,1802.683,1915.659,1802.683,1754.937,1710.156"
		/>
	<path style="fill-rule:evenodd;clip-rule:evenodd;fill:#CCCCCC;" d="M1439.178,2051.206c37.976,36.232,79.781,68.017,185.86,59.622
		c110.787-8.763,178.381-57.585,178.381-57.585c-111.409,51.325-217.183,30.675-276.021-18.147
		c-58.834-48.818-53.198-125.807-53.198-125.807s-5.009,39.435,4.378,95.763c9.387,56.333,43.815,75.733,43.815,75.733
		c-68.848-31.295-56.331-80.113-98.893-131.438c-19.783-23.858-44.71-29.047-65.719-27.77l-12.585,216.146
		c0,0,106.401,90.122,170.243,122.663c0,0,60.087-45.065,138.948-56.328c0,0-93.664-0.615-133.105,18.047
		c0,0-73.857-12.52-95.134-46.318c-21.281-33.798,13.77-46.313,30.668-26.91c0,0-12.52-24.41-43.811-20.032
		c-31.295,4.385-46.318-11.89-40.682-50.696c5.632-38.807,13.131-64.535,43.18-79.489c0,0-18.152-1.875-23.161-19.403
		c-5.005-17.528,21.908-34.422,38.184,8.763c16.272,43.187,45.691,74.48,45.691,74.48S1455.145,2064.244,1439.178,2051.206"/>
	<path style="fill-rule:evenodd;clip-rule:evenodd;fill:#CCCCCC;" d="M1765.227,2128.351c-27.539,8.768-123.93,60.09-214.058,31.298
		c-90.128-28.79-117.029-113.287-117.029-113.287s5.188,76.432,79.004,118.787c73.808,42.353,172.746,4.38,208.419,37.553
		c0,0,2.507-42.562,56.331-55.705c53.829-13.144,91.699-7.242,145.06,96.525C1864.116,2058.259,1792.766,2119.586,1765.227,2128.351
		"/>
	<path style="fill-rule:evenodd;clip-rule:evenodd;fill:#CCCCCC;" d="M1999.997,2093.304
		c-44.377-101.395-75.793-35.045-77.043,11.263c-1.257,46.318,0,138.955,0,138.955s16.418-123.44,20.182-147.85
		c3.756-24.407,38.615-28.792,56.86,27.538c18.245-56.33,53.109-51.945,56.864-27.538c3.76,24.41,20.182,147.85,20.182,147.85
		s1.257-92.637,0-138.955C2075.79,2058.259,2044.374,1991.909,1999.997,2093.304"/>
	<path style="fill-rule:evenodd;clip-rule:evenodd;fill:#CCCCCC;" d="M1999.997,2572.101
		c-151.286,63.75-249.109,21.783-368.237,119.2c61.845,103.537,208.537,207.52,208.537,207.52
		c12.516-55.087,95.129-127.687,95.129-127.687c-53.825-11.267-127.677-5.007-127.677-5.007
		c45.203,5.452,73.714,24.902,73.714,24.902c1.908,26.158-22.388,66.718-66.968,58.838c-44.58-7.882-49.447-68.225-49.447-68.225
		c-79.492,0.623-72.603-62.59-72.603-62.59c13.143,15.02,43.189,16.9,43.189,16.9c-14.4-23.788-8.765-66.345,94.507-92.632
		c103.276-26.292,169.857-1.88,169.857-1.88s66.581-24.412,169.857,1.88c103.271,26.287,108.907,68.843,94.507,92.632
		c0,0,30.05-1.88,43.193-16.9c0,0,6.889,63.213-72.603,62.59c0,0-4.867,60.344-49.447,68.225c-44.58,7.88-68.88-32.68-66.972-58.838
		c0,0,28.511-19.45,73.718-24.902c0,0-73.853-6.26-127.677,5.007c0,0,82.609,72.6,95.129,127.687
		c0,0,146.688-103.983,208.537-207.52C2249.106,2593.884,2151.283,2635.851,1999.997,2572.101"/>
	<path style="fill-rule:evenodd;clip-rule:evenodd;fill:#CCCCCC;" d="M1840.313,2406.864
		c71.977-85.12,159.684,98.267,159.684,98.267s87.707-183.386,159.684-98.267c0,0,27.539,9.387,41.313-23.16
		c13.765-32.547,0.626-75.732-13.774-108.902c0,0-86.369,1.875-127.681,77.608c0,0,60.555-63.033,109.998-52.39
		c49.447,10.64,28.479,85.12-14.392,70.413c-42.875-14.707-62.903-13.143-92.631,12.52c-29.732,25.658-62.516,58.828-62.516,58.828
		s-32.784-33.17-62.512-58.828c-29.728-25.663-49.756-27.227-92.631-12.52c-42.875,14.707-63.843-59.773-14.396-70.413
		c49.447-10.643,109.997,52.39,109.997,52.39c-41.308-75.733-127.681-77.608-127.681-77.608
		c-14.4,33.17-27.539,76.355-13.77,108.902C1812.774,2416.251,1840.313,2406.864,1840.313,2406.864"/>
	<path style="fill-rule:evenodd;clip-rule:evenodd;fill:#CCCCCC;" d="M1641.09,2585.875c0,0-93.567,46.489-136.755,89.675
		c0,0-16.313-68.201,46.59-154.305c-78.581,80.315-57.988,191.68-57.988,191.68
		C1536.797,2658.797,1607.797,2608.147,1641.09,2585.875"/>
	<path style="fill-rule:evenodd;clip-rule:evenodd;fill:#CCCCCC;" d="M1659.421,2573.981l-16.272,56.328
		c120.15-74.068,213.566-56.122,329.175-94.035c-52.002-95.91-108.862-88.723-108.862-88.723
		c-79.399,28.208-117.664-63.846-117.664-63.846s-20.032,25.04-150.22,102.648c-7.32,4.365-14.152,8.957-20.512,13.739
		c0,0,121.415-61.759,143.323-74.902c0,0,35.05,60.713,92.631,72.605c0,0-10.01-9.387-11.886-23.787c0,0,51.322,5.637,73.853,2.503
		c22.534-3.127,72.603,33.175,39.433,51.327c-33.175,18.15-108.28,20.65-147.086-10.017c0,0-23.934,64.895-95.138,81.368
		L1659.421,2573.981z"/>
	<path style="fill-rule:evenodd;clip-rule:evenodd;fill:#CCCCCC;" d="M1606.959,2412.042c0,0-30.664-12.085-37.553-76.362
		c-6.893-64.275,84.981-131.622,84.981-131.622s-73.852,40.682-113.908,113.292l56.331,129.925
		c8.74-6.137,16.817-11.843,23.804-17.253c66.345-51.325,113.912-75.108,127.686-110.158c13.77-35.05,40.059-110.16,40.059-110.16
		s-35.567,85.923-58.101,118.47c-22.53,32.547-64.469,20.65-64.469,20.65C1665.166,2412.666,1606.959,2412.042,1606.959,2412.042"/>
	<path style="fill-rule:evenodd;clip-rule:evenodd;fill:#CCCCCC;" d="M1573.581,2687.399
		c-82.613,62.588-105.684,104.395-105.684,104.395c-35.217-107.385-19.56-181.733,14.001-235.748c0,0-54.134-102.387-78.284-174.703
		c0,0,31.828,123.33,55.607,174.652c0,0-75.106,148.965,5.632,272.892c0,0,55.705-80.117,95.764-100.771
		c0,0,59.464,112.04,160.852,199.663c101.396,87.628,98.893,170.243,98.893,170.243s32.556-90.127,179.635,0
		c147.082-90.127,179.639,0,179.639,0s-2.507-82.615,98.889-170.243c101.392-87.623,160.852-199.663,160.852-199.663
		c40.059,20.655,95.764,100.771,95.764,100.771c80.741-123.927,5.631-272.892,5.631-272.892
		c23.783-51.322,55.611-174.652,55.611-174.652c-24.149,72.317-78.288,174.703-78.288,174.703
		c33.561,54.015,49.219,128.363,14.006,235.748c0,0-23.072-41.807-105.688-104.395c-2.169,6.873-10.429,16.54-22.526,36.708
		c-0.09,0.165-129.329,229.191-403.89,315.535c-274.556-86.343-403.8-315.37-403.89-315.535
		C1584.014,2703.939,1575.75,2694.272,1573.581,2687.399"/>
	<path style="fill-rule:evenodd;clip-rule:evenodd;fill:#CCCCCC;" d="M1303.773,2741.687
		c-21.48,21.785-77.413,120.298-77.413,120.298c-47.571-171.492,1.249-286.658,1.249-286.658
		c-26.286-91.38,42.371-254.245,42.371-254.245c-147.717,307.946-41.313,612.128-41.313,612.128
		C1264.76,2818.851,1303.773,2741.687,1303.773,2741.687"/>
	<path style="fill-rule:evenodd;clip-rule:evenodd;fill:#CCCCCC;" d="M1500.502,3113.597
		c-126.432-98.892-196.728-371.91-196.728-371.91c70.097,365.523,254.122,445.64,254.122,445.64
		c-46.322-102.648-60.087-255.37-60.087-255.37C1481.345,3004.436,1500.502,3113.597,1500.502,3113.597"/>
	<path style="fill-rule:evenodd;clip-rule:evenodd;fill:#CCCCCC;" d="M1497.808,2931.957
		c100.879,311.292,276.058,407.732,502.189,608.372c226.135-200.64,401.31-297.08,502.189-608.372
		c0,0-99.084,210.427-192.965,291.795c-93.884,81.363-132.686,37.548-137.695-17.528c0,0-12.524,30.043-15.653,60.713
		c-3.125,30.672,11.271,72.605-52.572,102.648c-63.839,30.042-91.439,8.763-103.304-37.555
		c-11.861,46.318-39.461,67.597-103.304,37.555c-63.839-30.043-49.447-71.977-52.572-102.648
		c-3.129-30.67-15.654-60.713-15.654-60.713c-5.005,55.077-43.807,98.892-137.691,17.528
		C1596.892,3142.384,1497.808,2931.957,1497.808,2931.957"/>
	<path style="fill-rule:evenodd;clip-rule:evenodd;fill:#CCCCCC;" d="M1141.041,2466.292c41.309-75.1,128.939-145.21,128.939-145.21
		c-36.499,22.403-103.084,75.242-103.084,75.242c-3.023-26.542,18.392-108.667,18.392-108.667
		C1167.596,2343.552,1150.075,2401.497,1141.041,2466.292"/>
	<path style="fill-rule:evenodd;clip-rule:evenodd;fill:#CCCCCC;" d="M1090.325,2009.471c0,0,79.48,63.217,35.042,110.158
		c0,0,18.152,39.43,2.503,69.477c-15.645,30.043-73.226,12.515-56.327-47.57c0,0-34.233,10.115-82.931-28.602
		c41.13,43.918,94.621,104.155,133.647,159.327c0,0,38.859-118.923,52.616-187.758l-95.178-113.923l-36.304,115.171
		L1090.325,2009.471z"/>
	<path style="fill-rule:evenodd;clip-rule:evenodd;fill:#CCCCCC;" d="M1063.421,1886.711
		c27.519,26.268,112.101,129.018,112.223,129.162c-8.708-64.437-36.833-141.998-53.385-191.75l-107.654-51.326l-69.413,219.141
		c0,0,39.351-112.653,58.757-139.563c19.401-26.915,60.71-37.555,69.474-6.888c0,0,24.406-29.413,40.682-1.247
		c16.272,28.162,23.161,83.867,23.161,98.887C1137.265,1943.126,1105.999,1902.901,1063.421,1886.711"/>
	<path style="fill-rule:evenodd;clip-rule:evenodd;fill:#CCCCCC;" d="M2733.721,1494.906
		c159.985-106.95,180.505-351.203,180.505-351.203c-95.134,112.663-331.726,209.055-331.726,209.055
		c85.506,88.65,63.985,233.183,63.985,233.183c-5.042-51.868-12.708-107.263-41.711-161.125
		c-18.546-34.452-43.962-61.877-72.807-80.703c261.116-82.738,415.812-266.045,415.812-266.045
		C2917.737,1426.063,2733.721,1494.906,2733.721,1494.906"/>
	<path style="fill-rule:evenodd;clip-rule:evenodd;fill:#CCCCCC;" d="M2727.088,1585.586
		c101.396,15.025,153.971-132.06,153.971-132.06c-53.202,34.422-147.339,41.38-147.339,41.38
		c148.34-39.949,196.533-126.425,196.533-126.425c-60.087,290.415-245.561,404.155-245.561,404.155
		c-6.604-22.195-13.863-46.346-21.09-69.926c-6.616-21.585-10.034-45.109-12.651-69.922c4.683,40.715,49.003,88.72,87.402,39.175
		C2777.161,1621.889,2727.088,1585.586,2727.088,1585.586"/>
	<path style="fill-rule:evenodd;clip-rule:evenodd;fill:#CCCCCC;" d="M2528.073,1622.513c0,0,23.787-28.166,18.778-108.278
		s-72.603-98.892-73.856-55.705c-1.249,43.185-30.664,57.585-30.664,57.585c35.05-43.813,1.253-92.631-72.604-83.872
		c-73.856,8.763-161.483,80.115-161.483,80.115l32.548,13.769c-95.137-1.254-240.796,52.658-240.796,52.658
		s135.351-55.087,245.508-120.175c110.156-65.098,195.28-108.903,260.372-56.33c65.096,52.578,81.368,108.907,83.875,179.003
		c1.835,51.505,38.814,166.531,58.305,223.933c-57.32-39.767-135.408-87.45-135.408-87.45
		c77.824,39.543,104.932,5.518,86.157-36.415C2580.022,1639.413,2528.073,1622.513,2528.073,1622.513"/>
	<path style="fill-rule:evenodd;clip-rule:evenodd;fill:#CCCCCC;" d="M2483.851,1715.886c-30.493,68.972,37.386,89.382,41.764,60.59
		c4.386-28.785-12.968-58.71-12.968-58.71l138.948,163.356c-85.124-65.711-133.317-83.245-187.142-51.95
		c-53.825,31.3-329.219,186.52-329.219,186.52s158.349-107.65,237.211-179.008
		C2451.307,1765.336,2483.851,1715.886,2483.851,1715.886"/>
	<path style="fill-rule:evenodd;clip-rule:evenodd;fill:#CCCCCC;" d="M2105.645,1902.283c21.281,28.795,98.885-8.763,149.585-44.438
		c50.7-35.673,228.621-141.958,228.621-141.958s-63.208,40.687-126.428,84.497c-63.212,43.813-249.735,179.006-249.735,179.006
		s-35.05-11.272-36.93-76.36c-1.876-65.094,39.433-80.117,105.778-120.175c35.449-21.402,61.963-46.558,78.971-65.349
		c-22.42,27.908-60.364,63.979-80.387,85.257c-20.028,21.283,2.502,49.452,2.502,49.452
		C2126.726,1812.259,2084.36,1873.493,2105.645,1902.283"/>
	<path style="fill-rule:evenodd;clip-rule:evenodd;fill:#CCCCCC;" d="M2560.816,2051.206
		c-37.972,36.232-79.777,68.017-185.856,59.622c-110.787-8.763-178.385-57.585-178.385-57.585
		c111.41,51.325,217.188,30.675,276.025-18.147c58.834-48.818,53.194-125.807,53.194-125.807s5.009,39.435-4.378,95.763
		c-9.387,56.333-43.815,75.733-43.815,75.733c68.852-31.295,56.335-80.113,98.893-131.438c19.783-23.858,44.71-29.047,65.719-27.77
		l12.59,216.146c0,0-106.405,90.122-170.248,122.663c0,0-60.083-45.065-138.948-56.328c0,0,93.665-0.615,133.105,18.047
		c0,0,73.857-12.52,95.137-46.318c21.277-33.798-13.773-46.313-30.672-26.91c0,0,12.524-24.41,43.815-20.032
		c31.295,4.385,46.318-11.89,40.682-50.696c-5.632-38.807-13.135-64.535-43.18-79.489c0,0,18.148-1.875,23.156-19.403
		c5.009-17.528-21.907-34.422-38.179,8.763c-16.272,43.187-45.691,74.48-45.691,74.48S2544.849,2064.244,2560.816,2051.206"/>
	<path style="fill-rule:evenodd;clip-rule:evenodd;fill:#CCCCCC;" d="M2234.767,2128.351c27.539,8.768,123.934,60.09,214.058,31.298
		c90.128-28.79,117.029-113.287,117.029-113.287s-5.188,76.432-79,118.787c-73.812,42.353-172.75,4.38-208.423,37.553
		c0,0-2.502-42.562-56.332-55.705c-53.829-13.144-91.699-7.242-145.056,96.525
		C2135.882,2058.259,2207.228,2119.586,2234.767,2128.351"/>
	<path style="fill-rule:evenodd;clip-rule:evenodd;fill:#CCCCCC;" d="M2358.908,2585.875c0,0,93.563,46.489,136.751,89.675
		c0,0,16.313-68.201-46.59-154.305c78.585,80.315,57.991,191.68,57.991,191.68C2463.197,2658.797,2392.2,2608.147,2358.908,2585.875
		"/>
	<path style="fill-rule:evenodd;clip-rule:evenodd;fill:#CCCCCC;" d="M2340.577,2573.981l16.268,56.328
		c-120.15-74.068-213.566-56.122-329.171-94.035c52.002-95.91,108.858-88.723,108.858-88.723
		c79.399,28.208,117.668-63.846,117.668-63.846s20.032,25.04,150.216,102.648c7.324,4.365,14.156,8.957,20.512,13.739
		c0,0-121.415-61.759-143.323-74.902c0,0-35.051,60.713-92.631,72.605c0,0,10.01-9.387,11.886-23.787c0,0-51.318,5.637-73.849,2.503
		c-22.538-3.127-72.607,33.175-39.437,51.327c33.175,18.15,108.284,20.65,147.091-10.017c0,0,23.934,64.895,95.133,81.368
		L2340.577,2573.981z"/>
	<path style="fill-rule:evenodd;clip-rule:evenodd;fill:#CCCCCC;" d="M2393.035,2412.042c0,0,30.668-12.085,37.553-76.362
		c6.897-64.275-84.981-131.622-84.981-131.622s73.853,40.682,113.912,113.292l-56.335,129.925
		c-8.74-6.137-16.813-11.843-23.8-17.253c-66.345-51.325-113.916-75.108-127.686-110.158c-13.774-35.05-40.06-110.16-40.06-110.16
		s35.563,85.923,58.102,118.47c22.53,32.547,64.469,20.65,64.469,20.65C2334.832,2412.666,2393.035,2412.042,2393.035,2412.042"/>
	<path style="fill-rule:evenodd;clip-rule:evenodd;fill:#CCCCCC;" d="M2696.225,2741.687
		c21.476,21.785,77.409,120.298,77.409,120.298c47.571-171.492-1.249-286.658-1.249-286.658
		c26.29-91.38-42.366-254.245-42.366-254.245c147.713,307.946,41.309,612.128,41.309,612.128
		C2735.234,2818.851,2696.225,2741.687,2696.225,2741.687"/>
	<path style="fill-rule:evenodd;clip-rule:evenodd;fill:#CCCCCC;" d="M2499.496,3113.597
		c126.428-98.892,196.729-371.91,196.729-371.91c-70.101,365.523-254.122,445.64-254.122,445.64
		c46.318-102.648,60.083-255.37,60.083-255.37C2518.653,3004.436,2499.496,3113.597,2499.496,3113.597"/>
	<path style="fill-rule:evenodd;clip-rule:evenodd;fill:#CCCCCC;" d="M2858.957,2466.292
		c-41.313-75.1-128.939-145.21-128.939-145.21c36.495,22.403,103.08,75.242,103.08,75.242
		c3.027-26.542-18.392-108.667-18.392-108.667C2832.402,2343.552,2849.919,2401.497,2858.957,2466.292"/>
	<path style="fill-rule:evenodd;clip-rule:evenodd;fill:#CCCCCC;" d="M2909.673,2009.471c0,0-79.484,63.217-35.046,110.158
		c0,0-18.152,39.43-2.502,69.477c15.646,30.043,73.23,12.515,56.327-47.57c0,0,34.237,10.115,82.935-28.602
		c-41.13,43.918-94.621,104.155-133.651,159.327c0,0-38.859-118.923-52.612-187.758l95.178-113.923l36.3,115.171L2909.673,2009.471z
		"/>
	<path style="fill-rule:evenodd;clip-rule:evenodd;fill:#CCCCCC;" d="M2936.573,1886.711
		c-27.519,26.268-112.101,129.018-112.223,129.162c8.708-64.437,36.833-141.998,53.385-191.75l107.658-51.326l69.409,219.141
		c0,0-39.351-112.653-58.752-139.563c-19.405-26.915-60.714-37.555-69.478-6.888c0,0-24.406-29.413-40.682-1.247
		c-16.272,28.162-23.157,83.867-23.157,98.887C2862.733,1943.126,2893.999,1902.901,2936.573,1886.711"/>
	<path style="fill-rule:evenodd;clip-rule:evenodd;fill:#FFFFFF;" d="M1805.474,2028.377
		c-146.944,64.12-256.624,16.852-256.624-152.178c0,0,64.559,36.175,150.932,87.76c-21.855,0.113-39.534,17.863-39.534,39.742
		c0,21.95,17.794,39.743,39.742,39.743c21.948,0,39.746-17.793,39.746-39.743c0-6.66-1.644-12.94-4.541-18.453
		C1757.846,1998.954,1781.491,2013.434,1805.474,2028.377"/>
	<path style="fill-rule:evenodd;clip-rule:evenodd;fill:#FFFFFF;" d="M2194.52,2028.377
		c146.944,64.12,256.624,16.852,256.624-152.178c0,0-64.559,36.175-150.932,87.76c21.859,0.113,39.539,17.863,39.539,39.742
		c0,21.95-17.794,39.743-39.742,39.743c-21.952,0-39.746-17.793-39.746-39.743c0-6.66,1.64-12.94,4.537-18.453
		C2242.148,1998.954,2218.507,2013.434,2194.52,2028.377"/>
</g>
</svg>
